<svg xmlns="http://www.w3.org/2000/svg" viewBox="0 0 100 100">
  <!-- 背景 -->
  <rect width="100" height="100" rx="20" fill="#165dff"/>
  <!-- 工具图标 - 扳手 -->
  <g transform="translate(20, 20) scale(0.6)" fill="#ffffff">
    <!-- 扳手头部 -->
    <path d="M70,25 C70,23.9 69.1,23 68,23 L60,23 C58.9,23 58,23.9 58,25 L58,28 L50,36 L30,36 C28.9,36 28,36.9 28,38 L28,50 C28,51.1 28.9,52 30,52 L50,52 L58,60 L58,63 C58,64.1 58.9,65 60,65 L68,65 C69.1,65 70,64.1 70,63 L70,50 C70,48.9 69.1,48 68,48 L65,48 L65,40 L68,40 C69.1,40 70,39.1 70,38 L70,25 Z M50,40 L65,25 L65,40 L50,40 Z" fill="#ffffff"/>
    <!-- 扳手手柄 -->
    <path d="M25,40 C15,40 10,45 10,55 C10,65 15,70 25,70 C35,70 40,65 40,55 C40,45 35,40 25,40 Z M25,45 C31,45 35,49 35,55 C35,61 31,65 25,65 C19,65 15,61 15,55 C15,49 19,45 25,45 Z" fill="#ffffff"/>
    <!-- 装饰点 -->
    <circle cx="25" cy="55" r="5" fill="#165dff"/>
  </g>
</svg>
